<svg xmlns="http://www.w3.org/2000/svg" width="548" height="541" viewBox="0 0 548 541" fill="none"><rect opacity="0.1" x="277.199" y="144.176" width="178.594" height="178.594" rx="23.0541" transform="rotate(45 277.199 144.176)" fill="#65A74E"></rect><path d="M529.494 230.769L316.833 18.4995C316.833 18.4995 298.346 0 278.266 0C257.872 0 239.385 18.4995 239.385 18.4995L218.008 39.9153L425.01 246.834C425.01 246.834 435.93 257.754 435.93 269.734C435.93 281.566 425.01 292.453 425.01 292.453L297.421 419.914L357.583 479.941L529.494 308.223C529.494 308.223 548 289.736 548 269.682C548 249.23 529.494 230.769 529.494 230.769Z" fill="#FFE86B"></path><path d="M123.041 293.551C123.041 293.551 112.121 282.631 112.121 270.645C112.121 258.8 123.041 247.944 123.041 247.944L250.643 120.458L190.487 60.4311L18.5124 232.143C18.5124 232.143 0 250.629 0 270.684C0 291.078 18.5124 309.565 18.5124 309.565L231.225 521.847C231.225 521.847 249.712 540.346 269.798 540.346C290.199 540.346 308.692 521.847 308.692 521.847L330.069 500.431L123.041 293.551Z" fill="#46597C"></path><rect x="277.199" y="145.135" width="177.238" height="177.238" rx="22.3761" transform="rotate(45 277.199 145.135)" stroke="#65A74E" stroke-width="1.35613" stroke-dasharray="13.56 13.56"></rect><g filter="url(#filter0_f_961_781)"><rect x="277.199" y="157.737" width="155.346" height="155.346" rx="23.0541" transform="rotate(45 277.199 157.737)" fill="#7DE758"></rect></g><rect x="277.199" y="92.6431" width="178.594" height="178.594" rx="23.0541" transform="rotate(45 277.199 92.6431)" fill="#65A74E"></rect><defs><filter id="filter0_f_961_781" x="90.1105" y="80.494" width="374.178" height="374.178" filterUnits="userSpaceOnUse" color-interpolation-filters="sRGB"><feGaussianBlur stdDeviation="43.396"></feGaussianBlur></filter></defs></svg>